<?xml version="1.0" encoding="utf-8"?>
<svg xmlns="http://www.w3.org/2000/svg" xmlns:xlink="http://www.w3.org/1999/xlink" width="600" height="400" viewBox="0 0 2400 1600">
<defs>
  <clipPath id="clip800">
    <rect x="0" y="0" width="2400" height="1600"/>
  </clipPath>
</defs>
<path clip-path="url(#clip800)" d="
M0 1600 L2400 1600 L2400 0 L0 0  Z
  " fill="#ffffff" fill-rule="evenodd" fill-opacity="1"/>
<defs>
  <clipPath id="clip801">
    <rect x="480" y="0" width="1681" height="1600"/>
  </clipPath>
</defs>
<path clip-path="url(#clip800)" d="
M169.469 1486.45 L2352.76 1486.45 L2352.76 47.2441 L169.469 47.2441  Z
  " fill="#ffffff" fill-rule="evenodd" fill-opacity="1"/>
<defs>
  <clipPath id="clip802">
    <rect x="169" y="47" width="2184" height="1440"/>
  </clipPath>
</defs>
<polyline clip-path="url(#clip802)" style="stroke:#000000; stroke-width:2; stroke-opacity:0.1; fill:none" points="
  227.132,1486.45 227.132,47.2441 
  "/>
<polyline clip-path="url(#clip802)" style="stroke:#000000; stroke-width:2; stroke-opacity:0.1; fill:none" points="
  639.899,1486.45 639.899,47.2441 
  "/>
<polyline clip-path="url(#clip802)" style="stroke:#000000; stroke-width:2; stroke-opacity:0.1; fill:none" points="
  1052.67,1486.45 1052.67,47.2441 
  "/>
<polyline clip-path="url(#clip802)" style="stroke:#000000; stroke-width:2; stroke-opacity:0.1; fill:none" points="
  1465.43,1486.45 1465.43,47.2441 
  "/>
<polyline clip-path="url(#clip802)" style="stroke:#000000; stroke-width:2; stroke-opacity:0.1; fill:none" points="
  1878.2,1486.45 1878.2,47.2441 
  "/>
<polyline clip-path="url(#clip802)" style="stroke:#000000; stroke-width:2; stroke-opacity:0.1; fill:none" points="
  2290.96,1486.45 2290.96,47.2441 
  "/>
<polyline clip-path="url(#clip802)" style="stroke:#000000; stroke-width:2; stroke-opacity:0.1; fill:none" points="
  169.469,1429.87 2352.76,1429.87 
  "/>
<polyline clip-path="url(#clip802)" style="stroke:#000000; stroke-width:2; stroke-opacity:0.1; fill:none" points="
  169.469,1228.91 2352.76,1228.91 
  "/>
<polyline clip-path="url(#clip802)" style="stroke:#000000; stroke-width:2; stroke-opacity:0.1; fill:none" points="
  169.469,1027.95 2352.76,1027.95 
  "/>
<polyline clip-path="url(#clip802)" style="stroke:#000000; stroke-width:2; stroke-opacity:0.1; fill:none" points="
  169.469,826.995 2352.76,826.995 
  "/>
<polyline clip-path="url(#clip802)" style="stroke:#000000; stroke-width:2; stroke-opacity:0.1; fill:none" points="
  169.469,626.038 2352.76,626.038 
  "/>
<polyline clip-path="url(#clip802)" style="stroke:#000000; stroke-width:2; stroke-opacity:0.1; fill:none" points="
  169.469,425.08 2352.76,425.08 
  "/>
<polyline clip-path="url(#clip802)" style="stroke:#000000; stroke-width:2; stroke-opacity:0.1; fill:none" points="
  169.469,224.123 2352.76,224.123 
  "/>
<polyline clip-path="url(#clip800)" style="stroke:#000000; stroke-width:4; stroke-opacity:1; fill:none" points="
  169.469,1486.45 2352.76,1486.45 
  "/>
<polyline clip-path="url(#clip800)" style="stroke:#000000; stroke-width:4; stroke-opacity:1; fill:none" points="
  169.469,1486.45 169.469,47.2441 
  "/>
<polyline clip-path="url(#clip800)" style="stroke:#000000; stroke-width:4; stroke-opacity:1; fill:none" points="
  227.132,1486.45 227.132,1469.18 
  "/>
<polyline clip-path="url(#clip800)" style="stroke:#000000; stroke-width:4; stroke-opacity:1; fill:none" points="
  639.899,1486.45 639.899,1469.18 
  "/>
<polyline clip-path="url(#clip800)" style="stroke:#000000; stroke-width:4; stroke-opacity:1; fill:none" points="
  1052.67,1486.45 1052.67,1469.18 
  "/>
<polyline clip-path="url(#clip800)" style="stroke:#000000; stroke-width:4; stroke-opacity:1; fill:none" points="
  1465.43,1486.45 1465.43,1469.18 
  "/>
<polyline clip-path="url(#clip800)" style="stroke:#000000; stroke-width:4; stroke-opacity:1; fill:none" points="
  1878.2,1486.45 1878.2,1469.18 
  "/>
<polyline clip-path="url(#clip800)" style="stroke:#000000; stroke-width:4; stroke-opacity:1; fill:none" points="
  2290.96,1486.45 2290.96,1469.18 
  "/>
<polyline clip-path="url(#clip800)" style="stroke:#000000; stroke-width:4; stroke-opacity:1; fill:none" points="
  169.469,1429.87 195.668,1429.87 
  "/>
<polyline clip-path="url(#clip800)" style="stroke:#000000; stroke-width:4; stroke-opacity:1; fill:none" points="
  169.469,1228.91 195.668,1228.91 
  "/>
<polyline clip-path="url(#clip800)" style="stroke:#000000; stroke-width:4; stroke-opacity:1; fill:none" points="
  169.469,1027.95 195.668,1027.95 
  "/>
<polyline clip-path="url(#clip800)" style="stroke:#000000; stroke-width:4; stroke-opacity:1; fill:none" points="
  169.469,826.995 195.668,826.995 
  "/>
<polyline clip-path="url(#clip800)" style="stroke:#000000; stroke-width:4; stroke-opacity:1; fill:none" points="
  169.469,626.038 195.668,626.038 
  "/>
<polyline clip-path="url(#clip800)" style="stroke:#000000; stroke-width:4; stroke-opacity:1; fill:none" points="
  169.469,425.08 195.668,425.08 
  "/>
<polyline clip-path="url(#clip800)" style="stroke:#000000; stroke-width:4; stroke-opacity:1; fill:none" points="
  169.469,224.123 195.668,224.123 
  "/>
<path clip-path="url(#clip800)" d="M 0 0 M227.132 1508.44 Q223.521 1508.44 221.692 1512 Q219.887 1515.55 219.887 1522.67 Q219.887 1529.78 221.692 1533.35 Q223.521 1536.89 227.132 1536.89 Q230.766 1536.89 232.572 1533.35 Q234.401 1529.78 234.401 1522.67 Q234.401 1515.55 232.572 1512 Q230.766 1508.44 227.132 1508.44 M227.132 1504.73 Q232.942 1504.73 235.998 1509.34 Q239.076 1513.92 239.076 1522.67 Q239.076 1531.4 235.998 1536.01 Q232.942 1540.59 227.132 1540.59 Q221.322 1540.59 218.243 1536.01 Q215.188 1531.4 215.188 1522.67 Q215.188 1513.92 218.243 1509.34 Q221.322 1504.73 227.132 1504.73 Z" fill="#000000" fill-rule="evenodd" fill-opacity="1" /><path clip-path="url(#clip800)" d="M 0 0 M603.267 1535.98 L610.906 1535.98 L610.906 1509.62 L602.596 1511.29 L602.596 1507.03 L610.859 1505.36 L615.535 1505.36 L615.535 1535.98 L623.174 1535.98 L623.174 1539.92 L603.267 1539.92 L603.267 1535.98 Z" fill="#000000" fill-rule="evenodd" fill-opacity="1" /><path clip-path="url(#clip800)" d="M 0 0 M638.243 1508.44 Q634.632 1508.44 632.804 1512 Q630.998 1515.55 630.998 1522.67 Q630.998 1529.78 632.804 1533.35 Q634.632 1536.89 638.243 1536.89 Q641.878 1536.89 643.683 1533.35 Q645.512 1529.78 645.512 1522.67 Q645.512 1515.55 643.683 1512 Q641.878 1508.44 638.243 1508.44 M638.243 1504.73 Q644.054 1504.73 647.109 1509.34 Q650.188 1513.92 650.188 1522.67 Q650.188 1531.4 647.109 1536.01 Q644.054 1540.59 638.243 1540.59 Q632.433 1540.59 629.355 1536.01 Q626.299 1531.4 626.299 1522.67 Q626.299 1513.92 629.355 1509.34 Q632.433 1504.73 638.243 1504.73 Z" fill="#000000" fill-rule="evenodd" fill-opacity="1" /><path clip-path="url(#clip800)" d="M 0 0 M665.257 1508.44 Q661.646 1508.44 659.817 1512 Q658.012 1515.55 658.012 1522.67 Q658.012 1529.78 659.817 1533.35 Q661.646 1536.89 665.257 1536.89 Q668.891 1536.89 670.697 1533.35 Q672.526 1529.78 672.526 1522.67 Q672.526 1515.55 670.697 1512 Q668.891 1508.44 665.257 1508.44 M665.257 1504.73 Q671.067 1504.73 674.123 1509.34 Q677.202 1513.92 677.202 1522.67 Q677.202 1531.4 674.123 1536.01 Q671.067 1540.59 665.257 1540.59 Q659.447 1540.59 656.368 1536.01 Q653.313 1531.4 653.313 1522.67 Q653.313 1513.92 656.368 1509.34 Q659.447 1504.73 665.257 1504.73 Z" fill="#000000" fill-rule="evenodd" fill-opacity="1" /><path clip-path="url(#clip800)" d="M 0 0 M1020.3 1535.98 L1036.62 1535.98 L1036.62 1539.92 L1014.68 1539.92 L1014.68 1535.98 Q1017.34 1533.23 1021.92 1528.6 Q1026.53 1523.95 1027.71 1522.61 Q1029.96 1520.08 1030.84 1518.35 Q1031.74 1516.59 1031.74 1514.9 Q1031.74 1512.14 1029.79 1510.41 Q1027.87 1508.67 1024.77 1508.67 Q1022.57 1508.67 1020.12 1509.43 Q1017.69 1510.2 1014.91 1511.75 L1014.91 1507.03 Q1017.73 1505.89 1020.19 1505.31 Q1022.64 1504.73 1024.68 1504.73 Q1030.05 1504.73 1033.24 1507.42 Q1036.44 1510.11 1036.44 1514.6 Q1036.44 1516.73 1035.63 1518.65 Q1034.84 1520.54 1032.73 1523.14 Q1032.16 1523.81 1029.05 1527.03 Q1025.95 1530.22 1020.3 1535.98 Z" fill="#000000" fill-rule="evenodd" fill-opacity="1" /><path clip-path="url(#clip800)" d="M 0 0 M1051.69 1508.44 Q1048.08 1508.44 1046.25 1512 Q1044.45 1515.55 1044.45 1522.67 Q1044.45 1529.78 1046.25 1533.35 Q1048.08 1536.89 1051.69 1536.89 Q1055.33 1536.89 1057.13 1533.35 Q1058.96 1529.78 1058.96 1522.67 Q1058.96 1515.55 1057.13 1512 Q1055.33 1508.44 1051.69 1508.44 M1051.69 1504.73 Q1057.5 1504.73 1060.56 1509.34 Q1063.64 1513.92 1063.64 1522.67 Q1063.64 1531.4 1060.56 1536.01 Q1057.5 1540.59 1051.69 1540.59 Q1045.88 1540.59 1042.8 1536.01 Q1039.75 1531.4 1039.75 1522.67 Q1039.75 1513.92 1042.8 1509.34 Q1045.88 1504.73 1051.69 1504.73 Z" fill="#000000" fill-rule="evenodd" fill-opacity="1" /><path clip-path="url(#clip800)" d="M 0 0 M1078.71 1508.44 Q1075.1 1508.44 1073.27 1512 Q1071.46 1515.55 1071.46 1522.67 Q1071.46 1529.78 1073.27 1533.35 Q1075.1 1536.89 1078.71 1536.89 Q1082.34 1536.89 1084.15 1533.35 Q1085.98 1529.78 1085.98 1522.67 Q1085.98 1515.55 1084.15 1512 Q1082.34 1508.44 1078.71 1508.44 M1078.71 1504.73 Q1084.52 1504.73 1087.57 1509.34 Q1090.65 1513.92 1090.65 1522.67 Q1090.65 1531.4 1087.57 1536.01 Q1084.52 1540.59 1078.71 1540.59 Q1072.9 1540.59 1069.82 1536.01 Q1066.76 1531.4 1066.76 1522.67 Q1066.76 1513.92 1069.82 1509.34 Q1072.9 1504.73 1078.71 1504.73 Z" fill="#000000" fill-rule="evenodd" fill-opacity="1" /><path clip-path="url(#clip800)" d="M 0 0 M1442.67 1521.29 Q1446.02 1522 1447.9 1524.27 Q1449.8 1526.54 1449.8 1529.87 Q1449.8 1534.99 1446.28 1537.79 Q1442.76 1540.59 1436.28 1540.59 Q1434.1 1540.59 1431.79 1540.15 Q1429.49 1539.73 1427.04 1538.88 L1427.04 1534.36 Q1428.99 1535.5 1431.3 1536.08 Q1433.61 1536.66 1436.14 1536.66 Q1440.54 1536.66 1442.83 1534.92 Q1445.14 1533.18 1445.14 1529.87 Q1445.14 1526.82 1442.99 1525.11 Q1440.86 1523.37 1437.04 1523.37 L1433.01 1523.37 L1433.01 1519.53 L1437.23 1519.53 Q1440.67 1519.53 1442.5 1518.16 Q1444.33 1516.77 1444.33 1514.18 Q1444.33 1511.52 1442.43 1510.11 Q1440.56 1508.67 1437.04 1508.67 Q1435.12 1508.67 1432.92 1509.09 Q1430.72 1509.5 1428.08 1510.38 L1428.08 1506.22 Q1430.74 1505.48 1433.06 1505.11 Q1435.4 1504.73 1437.46 1504.73 Q1442.78 1504.73 1445.88 1507.17 Q1448.98 1509.57 1448.98 1513.69 Q1448.98 1516.56 1447.34 1518.55 Q1445.7 1520.52 1442.67 1521.29 Z" fill="#000000" fill-rule="evenodd" fill-opacity="1" /><path clip-path="url(#clip800)" d="M 0 0 M1464.86 1508.44 Q1461.25 1508.44 1459.42 1512 Q1457.62 1515.55 1457.62 1522.67 Q1457.62 1529.78 1459.42 1533.35 Q1461.25 1536.89 1464.86 1536.89 Q1468.5 1536.89 1470.3 1533.35 Q1472.13 1529.78 1472.13 1522.67 Q1472.13 1515.55 1470.3 1512 Q1468.5 1508.44 1464.86 1508.44 M1464.86 1504.73 Q1470.67 1504.73 1473.73 1509.34 Q1476.81 1513.92 1476.81 1522.67 Q1476.81 1531.4 1473.73 1536.01 Q1470.67 1540.59 1464.86 1540.59 Q1459.05 1540.59 1455.98 1536.01 Q1452.92 1531.4 1452.92 1522.67 Q1452.92 1513.92 1455.98 1509.34 Q1459.05 1504.73 1464.86 1504.73 Z" fill="#000000" fill-rule="evenodd" fill-opacity="1" /><path clip-path="url(#clip800)" d="M 0 0 M1491.88 1508.44 Q1488.27 1508.44 1486.44 1512 Q1484.63 1515.55 1484.63 1522.67 Q1484.63 1529.78 1486.44 1533.35 Q1488.27 1536.89 1491.88 1536.89 Q1495.51 1536.89 1497.32 1533.35 Q1499.15 1529.78 1499.15 1522.67 Q1499.15 1515.55 1497.32 1512 Q1495.51 1508.44 1491.88 1508.44 M1491.88 1504.73 Q1497.69 1504.73 1500.74 1509.34 Q1503.82 1513.92 1503.82 1522.67 Q1503.82 1531.4 1500.74 1536.01 Q1497.69 1540.59 1491.88 1540.59 Q1486.07 1540.59 1482.99 1536.01 Q1479.93 1531.4 1479.93 1522.67 Q1479.93 1513.92 1482.99 1509.34 Q1486.07 1504.73 1491.88 1504.73 Z" fill="#000000" fill-rule="evenodd" fill-opacity="1" /><path clip-path="url(#clip800)" d="M 0 0 M1854.19 1509.43 L1842.39 1527.88 L1854.19 1527.88 L1854.19 1509.43 M1852.97 1505.36 L1858.85 1505.36 L1858.85 1527.88 L1863.78 1527.88 L1863.78 1531.77 L1858.85 1531.77 L1858.85 1539.92 L1854.19 1539.92 L1854.19 1531.77 L1838.59 1531.77 L1838.59 1527.26 L1852.97 1505.36 Z" fill="#000000" fill-rule="evenodd" fill-opacity="1" /><path clip-path="url(#clip800)" d="M 0 0 M1878.85 1508.44 Q1875.24 1508.44 1873.41 1512 Q1871.6 1515.55 1871.6 1522.67 Q1871.6 1529.78 1873.41 1533.35 Q1875.24 1536.89 1878.85 1536.89 Q1882.48 1536.89 1884.29 1533.35 Q1886.11 1529.78 1886.11 1522.67 Q1886.11 1515.55 1884.29 1512 Q1882.48 1508.44 1878.85 1508.44 M1878.85 1504.73 Q1884.66 1504.73 1887.71 1509.34 Q1890.79 1513.92 1890.79 1522.67 Q1890.79 1531.4 1887.71 1536.01 Q1884.66 1540.59 1878.85 1540.59 Q1873.04 1540.59 1869.96 1536.01 Q1866.9 1531.4 1866.9 1522.67 Q1866.9 1513.92 1869.96 1509.34 Q1873.04 1504.73 1878.85 1504.73 Z" fill="#000000" fill-rule="evenodd" fill-opacity="1" /><path clip-path="url(#clip800)" d="M 0 0 M1905.86 1508.44 Q1902.25 1508.44 1900.42 1512 Q1898.61 1515.55 1898.61 1522.67 Q1898.61 1529.78 1900.42 1533.35 Q1902.25 1536.89 1905.86 1536.89 Q1909.49 1536.89 1911.3 1533.35 Q1913.13 1529.78 1913.13 1522.67 Q1913.13 1515.55 1911.3 1512 Q1909.49 1508.44 1905.86 1508.44 M1905.86 1504.73 Q1911.67 1504.73 1914.73 1509.34 Q1917.8 1513.92 1917.8 1522.67 Q1917.8 1531.4 1914.73 1536.01 Q1911.67 1540.59 1905.86 1540.59 Q1900.05 1540.59 1896.97 1536.01 Q1893.92 1531.4 1893.92 1522.67 Q1893.92 1513.92 1896.97 1509.34 Q1900.05 1504.73 1905.86 1504.73 Z" fill="#000000" fill-rule="evenodd" fill-opacity="1" /><path clip-path="url(#clip800)" d="M 0 0 M2254.23 1505.36 L2272.59 1505.36 L2272.59 1509.3 L2258.51 1509.3 L2258.51 1517.77 Q2259.53 1517.42 2260.55 1517.26 Q2261.57 1517.07 2262.59 1517.07 Q2268.37 1517.07 2271.75 1520.24 Q2275.13 1523.42 2275.13 1528.83 Q2275.13 1534.41 2271.66 1537.51 Q2268.19 1540.59 2261.87 1540.59 Q2259.69 1540.59 2257.42 1540.22 Q2255.18 1539.85 2252.77 1539.11 L2252.77 1534.41 Q2254.85 1535.54 2257.08 1536.1 Q2259.3 1536.66 2261.78 1536.66 Q2265.78 1536.66 2268.12 1534.55 Q2270.46 1532.44 2270.46 1528.83 Q2270.46 1525.22 2268.12 1523.11 Q2265.78 1521.01 2261.78 1521.01 Q2259.9 1521.01 2258.03 1521.42 Q2256.17 1521.84 2254.23 1522.72 L2254.23 1505.36 Z" fill="#000000" fill-rule="evenodd" fill-opacity="1" /><path clip-path="url(#clip800)" d="M 0 0 M2290.2 1508.44 Q2286.59 1508.44 2284.76 1512 Q2282.96 1515.55 2282.96 1522.67 Q2282.96 1529.78 2284.76 1533.35 Q2286.59 1536.89 2290.2 1536.89 Q2293.84 1536.89 2295.64 1533.35 Q2297.47 1529.78 2297.47 1522.67 Q2297.47 1515.55 2295.64 1512 Q2293.84 1508.44 2290.2 1508.44 M2290.2 1504.73 Q2296.01 1504.73 2299.07 1509.34 Q2302.15 1513.92 2302.15 1522.67 Q2302.15 1531.4 2299.07 1536.01 Q2296.01 1540.59 2290.2 1540.59 Q2284.39 1540.59 2281.31 1536.01 Q2278.26 1531.4 2278.26 1522.67 Q2278.26 1513.92 2281.31 1509.34 Q2284.39 1504.73 2290.2 1504.73 Z" fill="#000000" fill-rule="evenodd" fill-opacity="1" /><path clip-path="url(#clip800)" d="M 0 0 M2317.21 1508.44 Q2313.6 1508.44 2311.77 1512 Q2309.97 1515.55 2309.97 1522.67 Q2309.97 1529.78 2311.77 1533.35 Q2313.6 1536.89 2317.21 1536.89 Q2320.85 1536.89 2322.65 1533.35 Q2324.48 1529.78 2324.48 1522.67 Q2324.48 1515.55 2322.65 1512 Q2320.85 1508.44 2317.21 1508.44 M2317.21 1504.73 Q2323.02 1504.73 2326.08 1509.34 Q2329.16 1513.92 2329.16 1522.67 Q2329.16 1531.4 2326.08 1536.01 Q2323.02 1540.59 2317.21 1540.59 Q2311.4 1540.59 2308.33 1536.01 Q2305.27 1531.4 2305.27 1522.67 Q2305.27 1513.92 2308.33 1509.34 Q2311.4 1504.73 2317.21 1504.73 Z" fill="#000000" fill-rule="evenodd" fill-opacity="1" /><path clip-path="url(#clip800)" d="M 0 0 M64.5893 1430.32 L94.2651 1430.32 L94.2651 1434.25 L64.5893 1434.25 L64.5893 1430.32 Z" fill="#000000" fill-rule="evenodd" fill-opacity="1" /><path clip-path="url(#clip800)" d="M 0 0 M100.145 1443.21 L107.784 1443.21 L107.784 1416.85 L99.4734 1418.51 L99.4734 1414.25 L107.737 1412.59 L112.413 1412.59 L112.413 1443.21 L120.052 1443.21 L120.052 1447.15 L100.145 1447.15 L100.145 1443.21 Z" fill="#000000" fill-rule="evenodd" fill-opacity="1" /><path clip-path="url(#clip800)" d="M 0 0 M129.149 1443.21 L145.469 1443.21 L145.469 1447.15 L123.524 1447.15 L123.524 1443.21 Q126.186 1440.46 130.77 1435.83 Q135.376 1431.18 136.557 1429.83 Q138.802 1427.31 139.682 1425.57 Q140.584 1423.81 140.584 1422.12 Q140.584 1419.37 138.64 1417.63 Q136.719 1415.9 133.617 1415.9 Q131.418 1415.9 128.964 1416.66 Q126.533 1417.43 123.756 1418.98 L123.756 1414.25 Q126.58 1413.12 129.033 1412.54 Q131.487 1411.96 133.524 1411.96 Q138.894 1411.96 142.089 1414.65 Q145.283 1417.33 145.283 1421.82 Q145.283 1423.95 144.473 1425.87 Q143.686 1427.77 141.58 1430.37 Q141.001 1431.04 137.899 1434.25 Q134.797 1437.45 129.149 1443.21 Z" fill="#000000" fill-rule="evenodd" fill-opacity="1" /><path clip-path="url(#clip800)" d="M 0 0 M62.9921 1229.36 L92.6679 1229.36 L92.6679 1233.3 L62.9921 1233.3 L62.9921 1229.36 Z" fill="#000000" fill-rule="evenodd" fill-opacity="1" /><path clip-path="url(#clip800)" d="M 0 0 M98.5475 1242.25 L106.186 1242.25 L106.186 1215.89 L97.8762 1217.56 L97.8762 1213.3 L106.14 1211.63 L110.816 1211.63 L110.816 1242.25 L118.455 1242.25 L118.455 1246.19 L98.5475 1246.19 L98.5475 1242.25 Z" fill="#000000" fill-rule="evenodd" fill-opacity="1" /><path clip-path="url(#clip800)" d="M 0 0 M133.524 1214.71 Q129.913 1214.71 128.084 1218.27 Q126.279 1221.82 126.279 1228.94 Q126.279 1236.05 128.084 1239.62 Q129.913 1243.16 133.524 1243.16 Q137.158 1243.16 138.964 1239.62 Q140.793 1236.05 140.793 1228.94 Q140.793 1221.82 138.964 1218.27 Q137.158 1214.71 133.524 1214.71 M133.524 1211.01 Q139.334 1211.01 142.39 1215.61 Q145.469 1220.19 145.469 1228.94 Q145.469 1237.67 142.39 1242.28 Q139.334 1246.86 133.524 1246.86 Q127.714 1246.86 124.635 1242.28 Q121.58 1237.67 121.58 1228.94 Q121.58 1220.19 124.635 1215.61 Q127.714 1211.01 133.524 1211.01 Z" fill="#000000" fill-rule="evenodd" fill-opacity="1" /><path clip-path="url(#clip800)" d="M 0 0 M88.8716 1028.4 L118.547 1028.4 L118.547 1032.34 L88.8716 1032.34 L88.8716 1028.4 Z" fill="#000000" fill-rule="evenodd" fill-opacity="1" /><path clip-path="url(#clip800)" d="M 0 0 M133.617 1028.82 Q130.283 1028.82 128.362 1030.6 Q126.464 1032.39 126.464 1035.51 Q126.464 1038.64 128.362 1040.42 Q130.283 1042.2 133.617 1042.2 Q136.95 1042.2 138.871 1040.42 Q140.793 1038.61 140.793 1035.51 Q140.793 1032.39 138.871 1030.6 Q136.973 1028.82 133.617 1028.82 M128.941 1026.83 Q125.932 1026.09 124.242 1024.03 Q122.575 1021.97 122.575 1019.01 Q122.575 1014.86 125.515 1012.46 Q128.478 1010.05 133.617 1010.05 Q138.779 1010.05 141.719 1012.46 Q144.658 1014.86 144.658 1019.01 Q144.658 1021.97 142.969 1024.03 Q141.302 1026.09 138.316 1026.83 Q141.695 1027.62 143.57 1029.91 Q145.469 1032.2 145.469 1035.51 Q145.469 1040.53 142.39 1043.22 Q139.334 1045.9 133.617 1045.9 Q127.899 1045.9 124.82 1043.22 Q121.765 1040.53 121.765 1035.51 Q121.765 1032.2 123.663 1029.91 Q125.561 1027.62 128.941 1026.83 M127.228 1019.45 Q127.228 1022.13 128.895 1023.64 Q130.584 1025.14 133.617 1025.14 Q136.626 1025.14 138.316 1023.64 Q140.029 1022.13 140.029 1019.45 Q140.029 1016.76 138.316 1015.26 Q136.626 1013.75 133.617 1013.75 Q130.584 1013.75 128.895 1015.26 Q127.228 1016.76 127.228 1019.45 Z" fill="#000000" fill-rule="evenodd" fill-opacity="1" /><path clip-path="url(#clip800)" d="M 0 0 M88.617 827.447 L118.293 827.447 L118.293 831.382 L88.617 831.382 L88.617 827.447 Z" fill="#000000" fill-rule="evenodd" fill-opacity="1" /><path clip-path="url(#clip800)" d="M 0 0 M133.941 825.132 Q130.793 825.132 128.941 827.285 Q127.112 829.437 127.112 833.187 Q127.112 836.914 128.941 839.09 Q130.793 841.243 133.941 841.243 Q137.089 841.243 138.918 839.09 Q140.769 836.914 140.769 833.187 Q140.769 829.437 138.918 827.285 Q137.089 825.132 133.941 825.132 M143.223 810.479 L143.223 814.738 Q141.464 813.905 139.658 813.465 Q137.876 813.025 136.117 813.025 Q131.487 813.025 129.033 816.15 Q126.603 819.275 126.256 825.595 Q127.621 823.581 129.682 822.516 Q131.742 821.428 134.219 821.428 Q139.427 821.428 142.436 824.599 Q145.469 827.748 145.469 833.187 Q145.469 838.511 142.32 841.729 Q139.172 844.947 133.941 844.947 Q127.945 844.947 124.774 840.363 Q121.603 835.757 121.603 827.03 Q121.603 818.836 125.492 813.974 Q129.381 809.09 135.932 809.09 Q137.691 809.09 139.473 809.437 Q141.279 809.785 143.223 810.479 Z" fill="#000000" fill-rule="evenodd" fill-opacity="1" /><path clip-path="url(#clip800)" d="M 0 0 M88.2929 626.489 L117.969 626.489 L117.969 630.424 L88.2929 630.424 L88.2929 626.489 Z" fill="#000000" fill-rule="evenodd" fill-opacity="1" /><path clip-path="url(#clip800)" d="M 0 0 M135.885 612.832 L124.08 631.281 L135.885 631.281 L135.885 612.832 M134.658 608.758 L140.538 608.758 L140.538 631.281 L145.469 631.281 L145.469 635.17 L140.538 635.17 L140.538 643.318 L135.885 643.318 L135.885 635.17 L120.283 635.17 L120.283 630.656 L134.658 608.758 Z" fill="#000000" fill-rule="evenodd" fill-opacity="1" /><path clip-path="url(#clip800)" d="M 0 0 M90.3762 425.532 L120.052 425.532 L120.052 429.467 L90.3762 429.467 L90.3762 425.532 Z" fill="#000000" fill-rule="evenodd" fill-opacity="1" /><path clip-path="url(#clip800)" d="M 0 0 M129.149 438.425 L145.469 438.425 L145.469 442.36 L123.524 442.36 L123.524 438.425 Q126.186 435.671 130.77 431.041 Q135.376 426.388 136.557 425.046 Q138.802 422.523 139.682 420.786 Q140.584 419.027 140.584 417.337 Q140.584 414.583 138.64 412.847 Q136.719 411.111 133.617 411.111 Q131.418 411.111 128.964 411.874 Q126.533 412.638 123.756 414.189 L123.756 409.467 Q126.58 408.333 129.033 407.754 Q131.487 407.175 133.524 407.175 Q138.894 407.175 142.089 409.861 Q145.283 412.546 145.283 417.036 Q145.283 419.166 144.473 421.087 Q143.686 422.986 141.58 425.578 Q141.001 426.249 137.899 429.467 Q134.797 432.661 129.149 438.425 Z" fill="#000000" fill-rule="evenodd" fill-opacity="1" /><path clip-path="url(#clip800)" d="M 0 0 M133.524 209.922 Q129.913 209.922 128.084 213.486 Q126.279 217.028 126.279 224.158 Q126.279 231.264 128.084 234.829 Q129.913 238.371 133.524 238.371 Q137.158 238.371 138.964 234.829 Q140.793 231.264 140.793 224.158 Q140.793 217.028 138.964 213.486 Q137.158 209.922 133.524 209.922 M133.524 206.218 Q139.334 206.218 142.39 210.824 Q145.469 215.408 145.469 224.158 Q145.469 232.885 142.39 237.491 Q139.334 242.074 133.524 242.074 Q127.714 242.074 124.635 237.491 Q121.58 232.885 121.58 224.158 Q121.58 215.408 124.635 210.824 Q127.714 206.218 133.524 206.218 Z" fill="#000000" fill-rule="evenodd" fill-opacity="1" /><polyline clip-path="url(#clip802)" style="stroke:#009af9; stroke-width:4; stroke-opacity:1; fill:none" points="
  231.26,188.407 235.387,186.458 239.515,232.8 243.643,210.418 247.77,212.815 251.898,201.958 256.026,230.76 260.153,232.628 264.281,240.071 268.409,216.571 
  272.536,198.49 276.664,235.164 280.792,214.343 284.919,258.111 289.047,263.055 293.175,242.902 297.302,261.01 301.43,294.385 305.558,286.097 309.685,327.794 
  313.813,296.296 317.941,282.341 322.068,328.176 326.196,297.214 330.324,316.467 334.451,302.324 338.579,290.216 342.707,267.394 346.834,231.607 350.962,213.267 
  355.09,186.26 359.217,233.191 363.345,194.317 367.473,230.687 371.6,262.242 375.728,215.082 379.856,206.983 383.983,209.396 388.111,182.372 392.239,214.472 
  396.366,254.936 400.494,268.093 404.622,248.413 408.749,278.297 412.877,312.503 417.005,358.321 421.132,337.204 425.26,294.923 429.388,323.665 433.515,359.067 
  437.643,377.616 441.771,341.768 445.898,321.98 450.026,331.486 454.154,328.394 458.281,377.445 462.409,369.282 466.537,356.738 470.664,359.661 474.792,386.161 
  478.92,350.658 483.047,389.372 487.175,413.932 491.303,442.364 495.43,440.412 499.558,445.025 503.686,443.083 507.813,441.064 511.941,452.432 516.069,498.59 
  520.196,530.208 524.324,544.091 528.452,582.697 532.579,562.027 536.707,610.82 540.835,600.16 544.962,641.272 549.09,629.512 553.218,644.295 557.345,683.89 
  561.473,674.235 565.601,705.782 569.728,718.128 573.856,671.75 577.984,719.008 582.111,670.187 586.239,658.143 590.367,654.977 594.494,630.095 598.622,612.446 
  602.75,639.106 606.877,649.382 611.005,664.407 615.133,687.623 619.26,690.814 623.388,660.003 627.516,609.907 631.643,562.829 635.771,554.742 639.899,519.939 
  644.026,486.705 648.154,511.192 652.282,467.396 656.409,507.25 660.537,517.045 664.665,565.46 668.792,522.383 672.92,551.508 677.048,515.565 681.175,483.103 
  685.303,468.88 689.431,438.911 693.558,483.146 697.686,490.851 701.814,519.099 705.941,542.029 710.069,532.082 714.197,569.84 718.324,606.194 722.452,621.532 
  726.58,607.186 730.707,594.63 734.835,634.873 738.963,607.349 743.09,645.742 747.218,638.785 751.346,673.886 755.473,669.918 759.601,639.053 763.729,613.411 
  767.856,657.015 771.984,665.468 776.112,699.628 780.239,685.028 784.367,715.061 788.495,706.75 792.622,755.521 796.75,771.114 800.878,767.979 805.005,760.124 
  809.133,726.203 813.261,760.699 817.388,728.767 821.516,682.938 825.644,722.827 829.771,761.971 833.899,764.942 838.027,774.945 842.154,811.607 846.282,828.059 
  850.41,853.634 854.537,862.979 858.665,880.291 862.793,920.842 866.92,935.125 871.048,913.768 875.175,940.875 879.303,931.214 883.431,961.162 887.558,951.711 
  891.686,965.092 895.814,957.279 899.941,976.017 904.069,998.267 908.197,950.456 912.324,930.949 916.452,929.684 920.58,918.616 924.707,959.848 928.835,995.256 
  932.963,954.572 937.09,1003.07 941.218,1021.54 945.346,992.79 949.473,1023.84 953.601,1013.61 957.729,1054.91 961.856,1035.25 965.984,1008.14 970.112,1029.16 
  974.239,1023.44 978.367,1044.52 982.495,1038.76 986.622,988.909 990.75,1025.8 994.878,1066.31 999.005,1093.06 1003.13,1114.38 1007.26,1163.17 1011.39,1193.19 
  1015.52,1217.3 1019.64,1187.01 1023.77,1194.98 1027.9,1146.18 1032.03,1165.28 1036.15,1174.18 1040.28,1174.5 1044.41,1151.42 1048.54,1103.22 1052.67,1146.05 
  1056.79,1177.12 1060.92,1187.1 1065.05,1217.06 1069.18,1173.21 1073.3,1202.34 1077.43,1204.35 1081.56,1241.27 1085.69,1257.24 1089.81,1270.83 1093.94,1295.92 
  1098.07,1254.5 1102.2,1261.2 1106.32,1264.19 1110.45,1290.46 1114.58,1313.55 1118.71,1283.92 1122.84,1281.18 1126.96,1246.28 1131.09,1228.28 1135.22,1227.35 
  1139.35,1234.22 1143.47,1260.66 1147.6,1250.48 1151.73,1237.1 1155.86,1234.26 1159.98,1218.01 1164.11,1260.72 1168.24,1295.74 1172.37,1309.67 1176.5,1301.09 
  1180.62,1268.68 1184.75,1305.95 1188.88,1314.26 1193.01,1311.61 1197.13,1320.44 1201.26,1303.51 1205.39,1297.09 1209.52,1251.27 1213.64,1240.14 1217.77,1200.9 
  1221.9,1195.23 1226.03,1154.82 1230.15,1115.2 1234.28,1097.9 1238.41,1061.47 1242.54,1030.49 1246.67,1076.64 1250.79,1057.04 1254.92,1098.48 1259.05,1146.04 
  1263.18,1174.34 1267.3,1130.29 1271.43,1172.63 1275.56,1173.27 1279.69,1206.72 1283.81,1190.36 1287.94,1201.05 1292.07,1197.64 1296.2,1207.69 1300.33,1209.56 
  1304.45,1224.46 1308.58,1247.97 1312.71,1209.03 1316.84,1200.01 1320.96,1237.19 1325.09,1243.23 1329.22,1287.81 1333.35,1289.34 1337.47,1242.79 1341.6,1275.31 
  1345.73,1259.78 1349.86,1253.14 1353.98,1205.6 1358.11,1239.92 1362.24,1217.83 1366.37,1199.64 1370.5,1220.93 1374.62,1206.94 1378.75,1244.48 1382.88,1208.55 
  1387.01,1203.96 1391.13,1187.87 1395.26,1226.61 1399.39,1273.55 1403.52,1244.79 1407.64,1219.2 1411.77,1239.43 1415.9,1216.35 1420.03,1225.93 1424.16,1244.55 
  1428.28,1203.9 1432.41,1246.31 1436.54,1289.43 1440.67,1278.31 1444.79,1275.22 1448.92,1318.62 1453.05,1319.16 1457.18,1272.15 1461.3,1270.27 1465.43,1291.66 
  1469.56,1338.59 1473.69,1296.36 1477.81,1344.51 1481.94,1381.7 1486.07,1429.17 1490.2,1445.59 1494.33,1439.99 1498.45,1396.9 1502.58,1347.61 1506.71,1376.58 
  1510.84,1329.6 1514.96,1316.97 1519.09,1364.9 1523.22,1329.29 1527.35,1357.22 1531.47,1375.92 1535.6,1326.12 1539.73,1290.75 1543.86,1252.01 1547.98,1260.04 
  1552.11,1222.88 1556.24,1251.93 1560.37,1251.42 1564.5,1250.69 1568.62,1250.3 1572.75,1264.48 1576.88,1287.36 1581.01,1331.62 1585.13,1308.37 1589.26,1291.51 
  1593.39,1251.49 1597.52,1267.75 1601.64,1275.39 1605.77,1261.63 1609.9,1279.79 1614.03,1314.3 1618.16,1342.06 1622.28,1299.52 1626.41,1278.89 1630.54,1327.8 
  1634.67,1289.57 1638.79,1317.56 1642.92,1331.04 1647.05,1313.81 1651.18,1359.65 1655.3,1347.02 1659.43,1344.32 1663.56,1315.09 1667.69,1324.15 1671.81,1311.56 
  1675.94,1356.35 1680.07,1379.21 1684.2,1406.52 1688.33,1445.72 1692.45,1435.83 1696.58,1403.01 1700.71,1422.14 1704.84,1396.41 1708.96,1363.78 1713.09,1392.42 
  1717.22,1411.44 1721.35,1361.94 1725.47,1315.09 1729.6,1347.29 1733.73,1326.68 1737.86,1296.77 1741.99,1306.61 1746.11,1342.91 1750.24,1346.57 1754.37,1346.32 
  1758.5,1383.2 1762.62,1335.87 1766.75,1338.51 1770.88,1330.8 1775.01,1350.88 1779.13,1355.74 1783.26,1315.36 1787.39,1305.5 1791.52,1314.64 1795.64,1321.68 
  1799.77,1283.63 1803.9,1236.53 1808.03,1280.94 1812.16,1314.55 1816.28,1267.4 1820.41,1300.73 1824.54,1266.98 1828.67,1287.19 1832.79,1329.5 1836.92,1330.89 
  1841.05,1308.81 1845.18,1335.64 1849.3,1340.58 1853.43,1302.22 1857.56,1332.56 1861.69,1363.99 1865.82,1313.77 1869.94,1363.22 1874.07,1331.21 1878.2,1312.58 
  1882.33,1286.02 1886.45,1265.27 1890.58,1229.33 1894.71,1192.96 1898.84,1203.78 1902.96,1233.61 1907.09,1190.03 1911.22,1158.61 1915.35,1195.6 1919.47,1235.93 
  1923.6,1220.72 1927.73,1173.85 1931.86,1205.74 1935.99,1246.2 1940.11,1288.5 1944.24,1325.27 1948.37,1343.72 1952.5,1302.93 1956.62,1327.32 1960.75,1319.99 
  1964.88,1361.56 1969.01,1316.14 1973.13,1347.45 1977.26,1328.93 1981.39,1300.85 1985.52,1340.02 1989.65,1297.22 1993.77,1280.98 1997.9,1322.29 2002.03,1303.29 
  2006.16,1326.94 2010.28,1290.12 2014.41,1312.63 2018.54,1323.85 2022.67,1305.15 2026.79,1341.97 2030.92,1296.14 2035.05,1298.84 2039.18,1258.11 2043.3,1211.14 
  2047.43,1225.67 2051.56,1233.9 2055.69,1208.09 2059.82,1204.6 2063.94,1194.62 2068.07,1226.45 2072.2,1195.91 2076.33,1151.62 2080.45,1185.34 2084.58,1150.88 
  2088.71,1176.69 2092.84,1166.51 2096.96,1186.17 2101.09,1202.87 2105.22,1180.6 2109.35,1132.77 2113.48,1132.95 2117.6,1156.68 2121.73,1142.44 2125.86,1158.43 
  2129.99,1118.83 2134.11,1161.73 2138.24,1157.72 2142.37,1169.69 2146.5,1139.38 2150.62,1102.05 2154.75,1086.75 2158.88,1080.43 2163.01,1075.97 2167.13,1026.77 
  2171.26,1061.49 2175.39,1034.56 2179.52,1084.27 2183.65,1049.83 2187.77,1059.57 2191.9,1017.02 2196.03,1000.78 2200.16,957.459 2204.28,917.393 2208.41,962.193 
  2212.54,946.405 2216.67,904.36 2220.79,926.005 2224.92,931.157 2229.05,922.639 2233.18,877.11 2237.31,850.693 2241.43,801.898 2245.56,800.203 2249.69,795.039 
  2253.82,829.288 2257.94,857.147 2262.07,854.72 2266.2,881.021 2270.33,917.149 2274.45,950.025 2278.58,935.711 2282.71,985.312 2286.84,977.128 2290.96,953.783 
  
  "/>
<polyline clip-path="url(#clip802)" style="stroke:#e26f46; stroke-width:4; stroke-opacity:1; fill:none" points="
  231.26,269.844 235.387,295.458 239.515,249.58 243.643,210.51 247.77,197.775 251.898,235.281 256.026,277.744 260.153,251.858 264.281,277.601 268.409,326.856 
  272.536,304.638 276.664,302.905 280.792,281.39 284.919,289.481 289.047,284.331 293.175,305.422 297.302,328.513 301.43,318.867 305.558,299.901 309.685,298.299 
  313.813,301.782 317.941,319.757 322.068,351.672 326.196,353.756 330.324,368.937 334.451,327.319 338.579,335.098 342.707,300.6 346.834,302.234 350.962,350.208 
  355.09,305.188 359.217,303.042 363.345,349.543 367.473,365.285 371.6,323.067 375.728,333.808 379.856,330.165 383.983,330.33 388.111,300.224 392.239,309.021 
  396.366,350.726 400.494,399.417 404.622,368.553 408.749,333.611 412.877,349.057 417.005,299.24 421.132,294.723 425.26,247.759 429.388,250.151 433.515,287.65 
  437.643,312.711 441.771,291.238 445.898,304.837 450.026,275.766 454.154,276.338 458.281,279.993 462.409,291.367 466.537,317.619 470.664,282.035 474.792,301.259 
  478.92,304.609 483.047,333.004 487.175,361.99 491.303,347.996 495.43,382.271 499.558,427.008 503.686,467.856 507.813,475.574 511.941,506.02 516.069,469.56 
  520.196,483.573 524.324,476.238 528.452,482.205 532.579,514.392 536.707,546.073 540.835,523.322 544.962,493.576 549.09,517.096 553.218,476.804 557.345,487.171 
  561.473,453.593 565.601,440.487 569.728,425.729 573.856,431.471 577.984,399.864 582.111,378.076 586.239,333.74 590.367,346.297 594.494,393.777 598.622,370.054 
  602.75,397.333 606.877,414.719 611.005,375.522 615.133,425.762 619.26,430.788 623.388,456.559 627.516,424.44 631.643,436.584 635.771,395.078 639.899,408.188 
  644.026,410.49 648.154,363.105 652.282,353.573 656.409,337.935 660.537,340.471 664.665,361.646 668.792,346.631 672.92,356.161 677.048,370.915 681.175,327.237 
  685.303,331.671 689.431,377.074 693.558,414.37 697.686,439.78 701.814,488.126 705.941,482.676 710.069,448.781 714.197,426.573 718.324,427.872 722.452,420.079 
  726.58,415.87 730.707,436.567 734.835,418.321 738.963,368.761 743.09,384.534 747.218,414.727 751.346,458.958 755.473,439.653 759.601,465.826 763.729,437.448 
  767.856,427.957 771.984,461.066 776.112,451.236 780.239,416.845 784.367,440.528 788.495,475.416 792.622,514.973 796.75,557.208 800.878,549.194 805.005,520.307 
  809.133,472.239 813.261,508.154 817.388,548.317 821.516,562.519 825.644,550.928 829.771,521.642 833.899,538.505 838.027,507.725 842.154,504.602 846.282,482.222 
  850.41,475.844 854.537,474.613 858.665,472.87 862.793,497.011 866.92,511.943 871.048,511.075 875.175,533.264 879.303,529.939 883.431,497.64 887.558,500.973 
  891.686,539.228 895.814,520.491 899.941,498.597 904.069,537.674 908.197,538.112 912.324,580.031 916.452,552.766 920.58,537.672 924.707,549.994 928.835,559.011 
  932.963,572.397 937.09,600.86 941.218,571.138 945.346,562.679 949.473,527.593 953.601,537.297 957.729,566.264 961.856,521.674 965.984,561.764 970.112,539.623 
  974.239,545.693 978.367,514.744 982.495,490.454 986.622,509.042 990.75,529.949 994.878,497.583 999.005,522.308 1003.13,507.866 1007.26,482.267 1011.39,495.594 
  1015.52,511.425 1019.64,464.233 1023.77,502.481 1027.9,547.049 1032.03,566.744 1036.15,605.739 1040.28,642.331 1044.41,672.457 1048.54,676.423 1052.67,697.576 
  1056.79,658.94 1060.92,647.017 1065.05,664.139 1069.18,646.894 1073.3,610.387 1077.43,590.777 1081.56,596.868 1085.69,556.387 1089.81,516.965 1093.94,566.023 
  1098.07,578.122 1102.2,606.967 1106.32,583.993 1110.45,570.982 1114.58,556.065 1118.71,600.754 1122.84,623.873 1126.96,605.276 1131.09,561.6 1135.22,519.489 
  1139.35,486.946 1143.47,460.814 1147.6,482.429 1151.73,480.102 1155.86,438.012 1159.98,467.703 1164.11,451.892 1168.24,406.373 1172.37,357.807 1176.5,310.244 
  1180.62,347.783 1184.75,342.197 1188.88,311.682 1193.01,286.993 1197.13,273.458 1201.26,252.165 1205.39,274.021 1209.52,308.138 1213.64,314.057 1217.77,326.468 
  1221.9,292.653 1226.03,304.192 1230.15,321.942 1234.28,275.424 1238.41,244.715 1242.54,250.601 1246.67,212.307 1250.79,234.486 1254.92,196.5 1259.05,183.601 
  1263.18,187.457 1267.3,172.147 1271.43,215.338 1275.56,175.599 1279.69,198.56 1283.81,170.611 1287.94,180.354 1292.07,156.227 1296.2,193.082 1300.33,198.748 
  1304.45,234.818 1308.58,256.595 1312.71,207.827 1316.84,227.686 1320.96,239.293 1325.09,263.944 1329.22,221.116 1333.35,182.149 1337.47,204.571 1341.6,248.191 
  1345.73,219.252 1349.86,203.641 1353.98,160.32 1358.11,197.963 1362.24,194.535 1366.37,193.163 1370.5,239.861 1374.62,270.016 1378.75,225.116 1382.88,255.44 
  1387.01,262.646 1391.13,282.697 1395.26,248.181 1399.39,240.655 1403.52,200.208 1407.64,186.198 1411.77,183.573 1415.9,156.817 1420.03,173.337 1424.16,185.116 
  1428.28,168.617 1432.41,157.284 1436.54,133.508 1440.67,179.46 1444.79,179.764 1448.92,218.467 1453.05,231.823 1457.18,279.908 1461.3,310.903 1465.43,305.018 
  1469.56,343.799 1473.69,359.538 1477.81,332.22 1481.94,296.832 1486.07,310.215 1490.2,305.278 1494.33,287.017 1498.45,237.984 1502.58,241.25 1506.71,255.645 
  1510.84,273.833 1514.96,293.276 1519.09,270.174 1523.22,244.374 1527.35,233.997 1531.47,206.021 1535.6,176.478 1539.73,142.831 1543.86,190.965 1547.98,188.723 
  1552.11,237.077 1556.24,281.676 1560.37,239.6 1564.5,257.62 1568.62,240.835 1572.75,255.019 1576.88,302.032 1581.01,311.395 1585.13,359.69 1589.26,409.836 
  1593.39,372.038 1597.52,362.705 1601.64,375.023 1605.77,336.157 1609.9,306.214 1614.03,303.164 1618.16,260.56 1622.28,229.957 1626.41,184.252 1630.54,219.932 
  1634.67,213.902 1638.79,196.636 1642.92,171.602 1647.05,146.189 1651.18,168.765 1655.3,218.381 1659.43,256.511 1663.56,254.618 1667.69,215.139 1671.81,219.041 
  1675.94,210.451 1680.07,241.162 1684.2,212.502 1688.33,196.558 1692.45,200.432 1696.58,204.425 1700.71,254.616 1704.84,286.577 1708.96,297.39 1713.09,296.384 
  1717.22,345.243 1721.35,337.48 1725.47,301.648 1729.6,335.829 1733.73,286.723 1737.86,251.757 1741.99,301.668 1746.11,269.35 1750.24,268.833 1754.37,282.562 
  1758.5,304.799 1762.62,315.746 1766.75,301.507 1770.88,265.131 1775.01,291.015 1779.13,308.863 1783.26,336.939 1787.39,367.097 1791.52,343.865 1795.64,358.501 
  1799.77,354.104 1803.9,331.213 1808.03,296.616 1812.16,296.606 1816.28,253.96 1820.41,229.777 1824.54,232.026 1828.67,216.198 1832.79,182.709 1836.92,227.32 
  1841.05,213.565 1845.18,256.903 1849.3,272.684 1853.43,284.371 1857.56,297.248 1861.69,269.763 1865.82,271.762 1869.94,307.972 1874.07,305.085 1878.2,297.069 
  1882.33,261.833 1886.45,241.933 1890.58,225.286 1894.71,184.362 1898.84,188.286 1902.96,151.259 1907.09,129.887 1911.22,126.552 1915.35,87.9763 1919.47,137.531 
  1923.6,181.37 1927.73,192.787 1931.86,180.11 1935.99,168.866 1940.11,137.954 1944.24,157.874 1948.37,200.952 1952.5,182.61 1956.62,146.4 1960.75,182.652 
  1964.88,203.716 1969.01,238.84 1973.13,203.392 1977.26,207.006 1981.39,193.207 1985.52,160.475 1989.65,191.887 1993.77,201.185 1997.9,227.964 2002.03,257.69 
  2006.16,236.059 2010.28,218.19 2014.41,191.9 2018.54,232.455 2022.67,262.784 2026.79,261.745 2030.92,271.512 2035.05,291.998 2039.18,327.408 2043.3,284.48 
  2047.43,264.897 2051.56,284.871 2055.69,326.168 2059.82,314.255 2063.94,308.726 2068.07,316.462 2072.2,301.38 2076.33,320.426 2080.45,308.919 2084.58,274.984 
  2088.71,297.235 2092.84,297.802 2096.96,270.048 2101.09,282.839 2105.22,324.942 2109.35,366.577 2113.48,399.436 2117.6,397.123 2121.73,400.842 2125.86,417.482 
  2129.99,434.056 2134.11,416.006 2138.24,451.969 2142.37,435.389 2146.5,463.464 2150.62,491.043 2154.75,515.2 2158.88,510.296 2163.01,552.513 2167.13,539.754 
  2171.26,537.084 2175.39,502.111 2179.52,521.073 2183.65,561.986 2187.77,573.32 2191.9,552.799 2196.03,532.378 2200.16,511.848 2204.28,501.137 2208.41,509.026 
  2212.54,467.961 2216.67,507.187 2220.79,467.245 2224.92,489.303 2229.05,535.948 2233.18,506.913 2237.31,487.591 2241.43,457.711 2245.56,448.414 2249.69,497.845 
  2253.82,457.738 2257.94,419.794 2262.07,428.414 2266.2,416.48 2270.33,371.038 2274.45,381.404 2278.58,396.463 2282.71,419.379 2286.84,414.48 2290.96,390.138 
  
  "/>
<path clip-path="url(#clip800)" d="
M1986.37 276.658 L2279.98 276.658 L2279.98 95.2176 L1986.37 95.2176  Z
  " fill="#ffffff" fill-rule="evenodd" fill-opacity="1"/>
<polyline clip-path="url(#clip800)" style="stroke:#000000; stroke-width:4; stroke-opacity:1; fill:none" points="
  1986.37,276.658 2279.98,276.658 2279.98,95.2176 1986.37,95.2176 1986.37,276.658 
  "/>
<polyline clip-path="url(#clip800)" style="stroke:#009af9; stroke-width:4; stroke-opacity:1; fill:none" points="
  2010.63,155.698 2156.19,155.698 
  "/>
<path clip-path="url(#clip800)" d="M 0 0 M2194.29 175.385 Q2192.48 180.015 2190.77 181.427 Q2189.05 182.839 2186.18 182.839 L2182.78 182.839 L2182.78 179.274 L2185.28 179.274 Q2187.04 179.274 2188.01 178.44 Q2188.99 177.607 2190.17 174.505 L2190.93 172.561 L2180.44 147.052 L2184.96 147.052 L2193.06 167.329 L2201.16 147.052 L2205.68 147.052 L2194.29 175.385 Z" fill="#000000" fill-rule="evenodd" fill-opacity="1" /><path clip-path="url(#clip800)" d="M 0 0 M2211.55 169.042 L2219.19 169.042 L2219.19 142.677 L2210.88 144.343 L2210.88 140.084 L2219.15 138.418 L2223.82 138.418 L2223.82 169.042 L2231.46 169.042 L2231.46 172.978 L2211.55 172.978 L2211.55 169.042 Z" fill="#000000" fill-rule="evenodd" fill-opacity="1" /><polyline clip-path="url(#clip800)" style="stroke:#e26f46; stroke-width:4; stroke-opacity:1; fill:none" points="
  2010.63,216.178 2156.19,216.178 
  "/>
<path clip-path="url(#clip800)" d="M 0 0 M2194.29 235.865 Q2192.48 240.495 2190.77 241.907 Q2189.05 243.319 2186.18 243.319 L2182.78 243.319 L2182.78 239.754 L2185.28 239.754 Q2187.04 239.754 2188.01 238.92 Q2188.99 238.087 2190.17 234.985 L2190.93 233.041 L2180.44 207.532 L2184.96 207.532 L2193.06 227.809 L2201.16 207.532 L2205.68 207.532 L2194.29 235.865 Z" fill="#000000" fill-rule="evenodd" fill-opacity="1" /><path clip-path="url(#clip800)" d="M 0 0 M2214.77 229.522 L2231.09 229.522 L2231.09 233.458 L2209.15 233.458 L2209.15 229.522 Q2211.81 226.768 2216.39 222.138 Q2221 217.485 2222.18 216.143 Q2224.43 213.62 2225.3 211.884 Q2226.21 210.124 2226.21 208.435 Q2226.21 205.68 2224.26 203.944 Q2222.34 202.208 2219.24 202.208 Q2217.04 202.208 2214.59 202.972 Q2212.16 203.735 2209.38 205.286 L2209.38 200.564 Q2212.2 199.43 2214.66 198.851 Q2217.11 198.273 2219.15 198.273 Q2224.52 198.273 2227.71 200.958 Q2230.91 203.643 2230.91 208.134 Q2230.91 210.263 2230.1 212.185 Q2229.31 214.083 2227.2 216.675 Q2226.62 217.347 2223.52 220.564 Q2220.42 223.759 2214.77 229.522 Z" fill="#000000" fill-rule="evenodd" fill-opacity="1" /></svg>
